<svg version="1.1" xmlns="http://www.w3.org/2000/svg" viewBox="0 0 546.1538461538464 345.6923076923075" width="546.1538461538464" height="345.6923076923075">
  <!-- svg-source:excalidraw -->

  <defs>
    <style>
      @font-face {
        font-family: "Virgil";
        src: url("https://excalidraw.com/Virgil.woff2");
      }
      @font-face {
        font-family: "Cascadia";
        src: url("https://excalidraw.com/Cascadia.woff2");
      }
    </style>
  </defs>
  <rect x="0" y="0" width="546.1538461538464" height="345.6923076923075" fill="transparent"></rect><g stroke-linecap="round" transform="translate(10 107.49999999999997) rotate(0 65.38461538461542 65.38461538461542)"><path d="M0 0 C0 0, 0 0, 0 0 M0 0 C0 0, 0 0, 0 0 M-0.98 5.88 C1.06 3.65, 2.64 1.76, 4.67 0.11 M-0.16 6.78 C1.52 4.74, 3.08 2.4, 5.31 0.08 M1.29 13.57 C4.36 9.03, 7.7 2.07, 12.04 0.98 M0.65 12.84 C2.72 8.93, 6.63 4.16, 9.86 -0.64 M-1.79 18.38 C5.28 15.61, 8.48 10.55, 14.35 0.69 M0.27 19.19 C4.32 15.1, 7.79 10.29, 15.67 -0.1 M-1.39 25.69 C8.33 16.22, 15.71 5.45, 21.14 1.16 M1.15 23.62 C6.66 16.35, 14.58 7.56, 21.95 -0.64 M0.16 30.26 C9.58 20.76, 16.97 13.51, 27.57 -1.49 M-0.68 30 C6.67 21.95, 13.24 14.67, 25.75 -0.34 M1.13 37.49 C12.11 22.88, 27.27 7.64, 33.2 -1.27 M0.17 37.34 C10 24.77, 18.54 13.94, 31.36 -0.91 M-1.66 41.42 C9.94 31.11, 19.64 21.15, 38.74 1.26 M-0.77 42.16 C7.68 34.09, 16.09 24.07, 36.53 1.01 M-1.03 48.29 C14.84 29.16, 32.53 10.67, 42.98 0.27 M-0.12 49.55 C17.88 28.63, 34.82 9.06, 42.32 -0.3 M0.74 54.57 C17.35 35.25, 35.17 18.22, 47.24 0.03 M0.59 53.77 C14.13 39.43, 26.99 24.69, 47.56 -0.77 M0.46 62.32 C16.11 42.23, 31.26 27.22, 52.31 0.15 M-0.66 61.1 C20.23 37.57, 41.45 12.91, 52.74 -0.77 M-1.82 69.2 C23.19 43.18, 42.89 17.13, 58.88 -1.04 M-1.14 66.43 C18.17 46.25, 35.07 26.09, 58.4 -0.16 M1.05 72.08 C14.47 54.12, 31.29 36.47, 64.5 -1.23 M0.31 72.34 C13.09 57.93, 26.93 42.04, 63.06 -0.56 M0.91 80.58 C23.57 50.42, 47.71 26.43, 67.97 1.22 M-0.02 79.22 C25.41 50.08, 52.77 19.74, 69.62 -0.4 M0.67 85.12 C17.31 67.78, 32.34 46.39, 74.33 0.56 M-0.46 84.83 C29.61 51.78, 56.92 20.27, 75.25 -1.17 M0.68 90.26 C24.66 64.78, 49.73 36.55, 79.28 -1.01 M-0.56 92.2 C28.86 58.52, 57.71 25.44, 79.82 -0.49 M1.05 98.75 C30.5 63.52, 57.51 31.62, 86.07 -0.03 M-0.84 97.14 C31.61 61.18, 62.92 24.48, 85.77 -0.36 M-0.64 105.08 C31.81 66.86, 64.72 29.75, 90.03 -0.5 M-0.1 104.41 C33.42 64.38, 67.43 25.38, 90.59 -0.21 M-1.63 111.07 C36.96 69.63, 71.35 30.67, 95.43 -0.51 M0.26 110.79 C26.71 80.77, 51.57 51.4, 96.62 -1.17 M-1.69 115.9 C29.52 81.48, 58.31 45.7, 99.94 -0.99 M-0.48 115.65 C33.09 76.82, 65 40.22, 101.55 0.9 M1.3 123.47 C25.08 90.29, 51.96 60.81, 107.59 -0.35 M0.01 121.82 C27.12 88.04, 55.13 57.03, 106.29 -0.88 M-0.32 128.38 C31.7 89.71, 66.38 50.12, 113.18 0.81 M0.36 128.18 C23.56 100.32, 47.11 73.41, 111.35 0.54 M0.96 134.09 C42.46 88.84, 82.5 41.24, 114.57 1.75 M0.53 133.22 C25.37 106.69, 47.7 79.33, 116.14 0.69 M6.27 133.63 C36.27 98.06, 67.02 60.6, 120.39 1.2 M7.13 132.44 C49.37 83.84, 92.29 33.55, 122.63 0.65 M13.47 130.57 C35.87 107.49, 58.43 78.77, 127.79 -1.12 M12.54 132.68 C38 101.66, 63.7 70.37, 126.03 1.2 M17.26 131.9 C51 95.08, 86.26 54.91, 132.03 0.31 M17.98 131.69 C44.31 100.25, 72.85 67.89, 132.41 1.13 M22.39 131.21 C64.37 82.85, 108.35 35.68, 130.3 5.19 M22.7 132.75 C60.1 92.37, 95.34 50.18, 131.44 6.12 M28.58 133.94 C68.72 89.16, 105.26 42.85, 132.48 13.07 M27.86 132.44 C53.05 104.08, 77.35 77.71, 131.18 11.96 M34.93 132.76 C54.59 104.71, 81.2 79.78, 130.46 19.82 M32.9 131.62 C74.45 86.81, 112.21 43.1, 132.26 19.57 M40.91 132.79 C67.61 99.97, 92.54 69.68, 132.99 24.33 M39.51 131.14 C75.02 90.66, 110.78 49.12, 130.82 25.21 M42.76 131.01 C76.02 94.47, 106.22 60.53, 131.41 30.16 M44.01 132.76 C75.72 96.3, 106.72 60.81, 131.15 30.64 M50.43 133.49 C78.79 98.27, 110.48 63.68, 131.38 37.04 M49.22 130.97 C83.08 95.74, 115.76 56.66, 131.37 38.22 M56.02 130.77 C75.46 110.66, 92.35 90.19, 133.15 42.93 M54.93 131.84 C75.2 107.86, 97.06 83.74, 132.71 43.45 M58.74 131.13 C81.35 111.19, 98.34 89.03, 131.98 51.4 M59.77 132.86 C84.58 102.76, 111.08 73.62, 131.9 49.86 M65.32 131.91 C88.02 106.29, 106.03 82.78, 130.48 57.62 M65.59 131.78 C91.38 103.37, 116.85 73.06, 132.4 55.59 M70.96 132.82 C83.41 118.15, 96.85 99.2, 130.25 59.94 M71.44 132.46 C93.03 107.28, 114.59 81.51, 132.14 62.47 M75.75 131.29 C91.67 111.6, 109.38 92.61, 129.67 69.49 M75.92 131.72 C94 112.61, 109.67 92.44, 132.16 68.14 M80.98 132.47 C92.57 120.28, 104.92 105.44, 130.11 74.19 M80.42 131.91 C102.16 109.42, 121.73 84.57, 132.87 73.62 M84.84 132.84 C102.98 111.31, 123.07 91.92, 130.45 80.11 M86.85 132.05 C97.16 119.28, 109.75 104.46, 131.47 79.16 M92.15 133.75 C108.73 116.54, 122.1 95.96, 133.3 87.48 M92.33 131.85 C108.19 113.62, 123.13 96.75, 132.2 85.86 M96.62 133.49 C107 117.67, 121.8 106.37, 130.72 92.3 M97.37 131.38 C110.38 115.7, 124.63 100.19, 131 91.7 M103.32 132.61 C109.57 124.69, 113.59 117.12, 131.98 97.89 M101.37 132.88 C113.52 120.68, 123.28 107.8, 131.24 98.72 M107.58 133.22 C114.78 123.1, 125.04 115.81, 131.81 104.93 M107.45 131.58 C112.58 125.04, 118.78 119.01, 132.93 103.54 M113.46 132.31 C116.33 126.07, 122.24 118.55, 130.84 110.81 M111.9 131.59 C117.74 125.85, 125.1 118.95, 131.14 110.24 M116.66 133.04 C121.12 126.57, 125.26 123.12, 131.89 115.65 M119.08 132.71 C123.36 126.78, 125.63 121.68, 131.27 116.95 M123.13 133.52 C124.42 129.87, 127.61 127.63, 131.75 122.15 M123 132.36 C126.3 130.08, 128.4 126.54, 132.44 122.82 M128.68 132.22 C129.74 131.57, 130.68 130.91, 131.43 128.79 M129.07 132.05 C129.74 131.13, 130.7 130.13, 131.63 128.95" stroke="#fa5252" stroke-width="0.5" fill="none"></path><path d="M-0.5 1.72 C46.55 -1.36, 90.38 1.5, 132.44 -1.67 M0.93 0.46 C40.72 -1.25, 81.32 -1.35, 131.26 -0.74 M130.98 -0.55 C133.83 29.83, 131.36 59.14, 130.93 129.61 M131.32 -0.59 C130.14 27.09, 130.88 53.37, 130.56 130.03 M129.14 132.61 C92.5 129.69, 51.18 130.87, -0.63 131.84 M131.12 130.51 C85.16 131.17, 38.84 131.36, -0.94 130.89 M0.69 130.17 C-0.94 96.66, 1.74 63.86, -1.66 0.2 M0.32 131.24 C0.86 84.73, 1.2 37.31, -0.79 0.72" stroke="#c92a2a" stroke-width="1" fill="none"></path></g><g stroke-linecap="round" transform="translate(209.23076923076917 107.49999999999997) rotate(0 65.38461538461542 65.38461538461542)"><path d="M0 0 C0 0, 0 0, 0 0 M0 0 C0 0, 0 0, 0 0 M-0.98 5.96 C1.38 4.53, 2.98 3.17, 5.73 0.76 M-0.62 6.25 C0.73 5.31, 2.16 3.54, 4.85 0.66 M-0.59 11.54 C2.94 6.65, 8.07 2.24, 11 0.29 M0.14 12.55 C5 6.71, 9.28 1.71, 10.47 -0.16 M0.35 18.45 C5.81 11.51, 12.76 6.98, 15.35 0.13 M0.19 17.65 C4.49 13.61, 8.46 9.1, 15.67 -0.67 M0.71 25.44 C6.72 15.86, 12.48 11.65, 20.42 0.26 M-0.4 24.23 C7.86 15, 16.53 4.78, 20.85 -0.67 M-1.56 32.32 C11.38 20.67, 18.73 8.82, 26.99 -0.93 M-0.88 29.56 C8.6 20.74, 15.44 12.15, 26.51 -0.06 M0.65 35.96 C6.16 26.84, 15.17 18.17, 32.61 -1.12 M-0.09 36.22 C6.21 29.15, 13.49 20.82, 31.17 -0.46 M1.17 43.7 C12.89 26.19, 26.03 14.85, 36.08 1.32 M0.24 42.34 C13.47 27.19, 28.46 11.08, 37.73 -0.3 M0.27 49 C9.84 39.58, 17.88 26.24, 42.44 0.66 M-0.86 48.71 C16.83 29.68, 32.09 12.04, 43.36 -1.07 M0.94 53.38 C15.33 39.49, 30.57 22.56, 47.39 -0.91 M-0.3 55.32 C17.25 34.75, 34.54 14.97, 47.93 -0.39 M1.31 61.87 C19.59 39.3, 35.73 19.91, 54.18 0.07 M-0.58 60.26 C19.78 38.39, 39.08 15.51, 53.88 -0.26 M-1.04 68.96 C19.78 43.76, 41.33 19.71, 58.14 -0.39 M-0.5 68.29 C21.37 41.95, 43.71 16.38, 58.7 -0.11 M-1.37 74.19 C25.06 46.25, 47.51 21.04, 63.54 -0.41 M0.52 73.92 C18.17 53.97, 34.51 34.42, 64.73 -1.06 M-2.09 79.78 C19.96 56.06, 39.43 31, 68.05 -0.88 M-0.88 79.53 C22.7 52.67, 44.32 27.91, 69.66 1 M1.56 86.59 C17.57 62.67, 36.44 42.39, 75.7 -0.25 M0.26 84.94 C19.22 61.23, 38.73 39.98, 74.4 -0.78 M-0.07 91.51 C22.6 63.88, 47.57 35.47, 81.29 0.91 M0.61 91.3 C17.08 71.35, 33.9 52.16, 79.46 0.65 M-0.76 99.47 C30.7 65.88, 60.44 30.14, 83.33 1.1 M-1.18 98.61 C17.57 78.93, 33.96 58.39, 84.91 0.04 M-0.69 105.06 C22.76 77.24, 46.76 47.56, 88.5 1.31 M0.17 103.86 C33.13 65.86, 66.77 26.24, 90.74 0.75 M1.26 108.03 C19.93 89.36, 38.65 65.05, 96.56 -1.77 M0.33 110.14 C21.58 84.35, 42.91 58.09, 94.8 0.55 M-0.2 115.4 C29.44 83.2, 60.64 47.71, 100.79 -0.34 M0.52 115.19 C23.57 87.57, 48.74 59.08, 101.17 0.48 M-0.31 120.75 C40.65 73.55, 83.61 27.54, 104.97 -2.26 M0 122.28 C36.51 82.88, 70.89 41.68, 106.12 -1.32 M-0.03 130.27 C43.06 82.17, 82.5 32.51, 111.74 0.34 M-0.75 128.77 C26.31 98.33, 52.4 69.9, 110.44 -0.76 M3.04 132.86 C26.5 100.32, 57.09 70.81, 114.97 1.05 M1.01 131.73 C49.25 79.4, 93.53 28.19, 116.77 0.8 M9.02 132.89 C42.25 92.47, 73.68 54.69, 123.41 -1.22 M7.62 131.24 C51.85 80.81, 96.44 29.12, 121.24 -0.35 M10.87 131.11 C53.61 83.54, 93.19 38.83, 126.42 -0.68 M12.12 132.86 C53.35 85.4, 94.06 38.74, 126.16 -0.2 M18.54 133.59 C58.65 85.24, 101.85 37.41, 131.64 0.16 M17.33 131.07 C64.37 81.33, 109.87 27.51, 131.63 1.34 M24.13 130.88 C51.25 101.73, 75.77 72.48, 132.75 6.81 M23.04 131.94 C51.85 98, 82.11 64.22, 132.31 7.33 M26.85 131.23 C58.45 101.51, 84.08 69.41, 132.24 14.52 M27.88 132.96 C63.99 89.74, 101.99 47.37, 132.15 12.99 M33.43 132.01 C66.55 94.73, 94.61 59.64, 130.74 20.74 M33.7 131.88 C72.25 89.46, 110.12 44.88, 132.66 18.72 M39.07 132.93 C58.83 110.31, 79.36 83.2, 129.85 23.82 M39.55 132.56 C72.5 94.3, 105.66 55.18, 131.74 26.35 M43.86 131.4 C69.7 100.71, 97 70.69, 129.92 32.62 M44.03 131.82 C72.01 101.03, 97.75 69.28, 132.42 31.26 M49.74 131.82 C68.09 111.59, 87.53 88.59, 129.71 38.07 M49.18 131.26 C83.22 94.62, 115.12 55.59, 132.47 37.49 M52.95 132.94 C83.68 97.07, 116.32 63.24, 130.71 43.23 M54.96 132.15 C73.5 109.8, 94.67 85.12, 131.73 42.28 M60.92 133.1 C89.87 101.95, 115.42 67.35, 133.55 50.6 M61.09 131.2 C89.56 98.61, 116.9 67.48, 132.46 48.98 M64.73 133.59 C85.55 106.03, 110.77 82.74, 130.32 56.17 M65.48 131.48 C90.7 101.64, 117.17 72.09, 130.61 55.58 M72.09 131.96 C84.35 116.61, 94.73 101.71, 132.24 61.01 M70.13 132.23 C93.66 106.77, 114.94 80.63, 131.5 61.84 M75.69 133.32 C92.97 111.91, 113.14 93.21, 131.41 68.81 M75.56 131.68 C88.03 116.61, 101.82 101.83, 132.53 67.42 M81.57 132.41 C93.25 115.5, 108.26 97.51, 131.1 73.93 M80.01 131.69 C95.4 114.36, 112.59 96.15, 131.4 73.37 M84.77 133.14 C98.57 116.24, 111.94 102.18, 132.14 78.77 M87.19 132.82 C101.34 115.46, 113.76 98.68, 131.53 80.08 M91.11 134.21 C99.42 121.38, 110.73 110.56, 131.27 85.78 M90.91 132.42 C103.65 120.38, 114.3 106.4, 132.32 86.81 M95.41 133.08 C106.21 123.53, 116.22 114.12, 130.79 91.01 M97.38 132.22 C107.92 119.62, 119.67 106.55, 131.82 91.8 M103.96 131.41 C111.36 120.41, 125.8 107.08, 130.34 99.74 M102.57 132.22 C111.44 120.74, 119.96 111.67, 132.43 99.4 M109.48 130.22 C117.61 124.61, 125.75 114.52, 131.12 104.47 M107.16 131.45 C114.82 124.27, 121.49 114.68, 132.12 104.58 M113.51 131.35 C116.54 126.58, 120.06 121.47, 132.38 112.29 M111.91 131.9 C118.03 124.98, 124.47 117.87, 130.91 109.88 M117.36 132.65 C121.75 126.04, 129.21 120.54, 131.68 118.9 M118.58 131.29 C123.03 127.89, 127.23 123.66, 132.01 117.89 M124.17 133.06 C127.5 129.58, 129.11 124.84, 132.36 123.64 M123.36 132.79 C126.59 129.25, 129.75 124.27, 131.73 122.51 M128.8 132.33 C129.49 130.91, 130.55 130.01, 131.41 129.18 M129.16 132.18 C129.76 131.14, 130.55 130, 131.63 128.95" stroke="#fab005" stroke-width="0.5" fill="none"></path><path d="M1.45 1.91 C49.92 2.44, 98.7 -0.54, 132.53 1.26 M0.65 1 C38.59 -0.25, 78.81 -1.69, 129.8 -0.75 M129.11 -0.06 C132.02 28.86, 131.85 55.54, 129.51 131.14 M131.17 0.75 C130.5 30.84, 130.33 60.36, 130.83 130.34 M129.11 132.38 C82.76 131.08, 34.17 129.22, -0.12 132 M131.65 130.31 C87.6 130.66, 46.13 129.74, 0.69 130.2 M0.16 130.55 C2.43 92.01, 2.18 55.48, 1.32 -1.78 M-0.68 130.29 C-0.19 95.27, -0.67 60.99, -0.5 -0.63" stroke="#e67700" stroke-width="1" fill="none"></path></g><g stroke-linecap="round" transform="translate(405.3846153846155 106.7307692307692) rotate(0 65.38461538461547 65.38461538461542)"><path d="M0 0 C0 0, 0 0, 0 0 M0 0 C0 0, 0 0, 0 0 M-0.6 6.88 C1 5.19, 2.32 2.71, 5.42 -0.01 M0.01 6.56 C1.42 4.25, 3.62 2.28, 5.05 0.34 M1.52 12.59 C3.77 9.11, 6.84 5.42, 9.97 -0.37 M0.08 11.65 C2.73 8.85, 5.11 6.58, 10.29 -0.34 M-0.33 19.1 C5.27 10.56, 11.6 7.09, 15.02 0.05 M-0.9 19 C4.71 14.14, 7.55 8.43, 16.18 1.13 M-0.14 24.16 C7.78 15.57, 15.16 3.66, 22.96 -0.36 M0.24 23.82 C6.53 16.46, 12.79 7.93, 20.99 0.1 M0.49 31.41 C8.84 19.42, 17.33 9.21, 24.59 -1.1 M-0.08 30.44 C5.97 23.37, 11.74 17.59, 27.22 1.09 M-1.54 36.47 C9.7 22.53, 21.61 11.21, 31.53 -0.4 M-0.39 37.63 C10.99 23.87, 21.46 12.88, 31.02 0.83 M1.17 42.65 C11.47 26.99, 25.8 13.78, 38.48 2 M-0.56 41.63 C11.95 27.85, 24.29 15.58, 37.52 0.15 M0.3 50.54 C8.38 39.86, 15.3 29.22, 42.18 0.2 M-1.07 48.22 C8.32 38.44, 17.8 28.77, 41.7 0.72 M2.02 54 C14.99 38.42, 29.12 20.71, 47.84 -0.59 M1.23 54.33 C16.81 35.13, 35.56 14.02, 47.84 0.99 M1.5 61.56 C17.41 37.06, 36.69 14.94, 52.07 -0.72 M0.5 61.86 C11.44 46.56, 23.25 33.24, 52.41 -1.05 M1.15 68.4 C19.24 44.23, 38.1 22.65, 57.31 -0.79 M0.22 67.29 C11.43 52.65, 25.18 38.38, 57.48 0.03 M0.33 73.98 C23.53 46.33, 48.76 16.35, 62.79 1.68 M-0.2 73.77 C20.25 50.55, 38.53 27.03, 63.59 -0.07 M-0.9 77.57 C17.12 60.32, 30.95 44.89, 66.96 1.52 M0.34 80.22 C25.25 51.05, 49.92 21.14, 69.22 0.44 M-1.51 84.3 C24.11 54.18, 49.11 24.82, 74.43 1.28 M-0.18 85.92 C16 67.7, 32.42 47.89, 73.66 0.31 M0.92 92.52 C15.21 71.88, 35.09 55.1, 78.38 0.49 M-0.46 91.35 C20.16 69.05, 40.91 46.51, 78.4 1.1 M-1.48 99.79 C22.88 67.3, 50.04 39.14, 83.54 -1.01 M-0.61 98.78 C27.85 65.78, 54.87 33.98, 84.07 -0.02 M0.8 102.53 C32.67 69.25, 58.68 34.64, 88.59 -1.72 M-0.53 103.37 C29.15 69.67, 57.54 37.68, 89.83 -0.36 M0.39 109.5 C21.03 83.96, 43.26 60.73, 97.13 0.77 M0.85 109.28 C20.95 85.08, 40.75 60.4, 96.29 -0.94 M-0.64 113.92 C23.36 91.06, 43.09 65.08, 100.09 -0.88 M-0.23 115.21 C35.21 76.84, 69.61 35.7, 100.87 -0.58 M-0.42 122.77 C32.81 81.91, 67.48 45.44, 106.69 -0.42 M-0.92 122.33 C37.28 78.4, 74.55 36.67, 106.79 -1.11 M1.06 128.81 C36.21 90.9, 68.06 47.84, 110.86 -0.75 M0.46 127.79 C34.84 87.06, 71.41 46.91, 110.38 0.53 M0.98 130.7 C29.55 103.98, 51.94 72.46, 117.52 2.18 M2.44 133.34 C41.31 87.82, 78.2 44.46, 115.41 -0.17 M6.02 131.76 C32.36 101.38, 60.6 69.26, 120.33 0.92 M6.74 131.7 C48.69 83.72, 90.43 35.74, 121.73 0.81 M13.54 130.88 C42.01 102.34, 68.08 70.31, 125.36 0.1 M12.37 131.9 C41.34 98.85, 70.63 65.11, 126.98 1.17 M17.69 133.46 C46.49 97, 78.67 61.23, 130.75 -0.79 M17.73 131.85 C43.55 101.95, 68.08 72.26, 131.17 1.56 M24.6 132.56 C59.94 91.29, 93.42 47.01, 132.53 6.97 M22.76 131.94 C43.67 106.76, 65.85 82.15, 132.47 7.52 M27.3 132.13 C52.68 106.03, 76.41 76.48, 133.32 13.02 M27.85 131.88 C65.17 89.52, 102.96 45.08, 132.92 13.66 M32.17 132.44 C64.24 98.37, 91.21 64.62, 133.71 18.36 M33.22 132.57 C61.9 100.05, 91.95 64.7, 131.72 19.67 M37.84 133.26 C71.11 93.37, 106.8 55.92, 133.07 24.13 M39.85 132.9 C63.63 100.98, 89.62 71.62, 131.08 25.57 M45.7 131.27 C61.48 110.96, 80.12 89.76, 133.32 31.13 M44.86 131.65 C65.92 105.87, 89.2 81.23, 131.89 30.85 M50.77 131.33 C72.96 105.19, 100.23 73.25, 132.62 37.45 M50.45 132.25 C80.51 97.06, 110.24 61.14, 132.42 38.55 M56.16 131.82 C80.81 99.48, 109.41 70.47, 131.66 42.45 M55.29 132.74 C76.01 108.01, 97.22 82.8, 132.55 42.83 M60.01 131.9 C82.92 106.69, 107.78 80.75, 132.09 48.15 M59.43 132.49 C80.91 108.07, 100.31 85.71, 131.22 48.85 M65.93 132.89 C83.38 108.57, 102.5 87.62, 130.83 55.25 M65.68 132.16 C84.39 108.27, 105.81 83.65, 130.64 56.35 M69.95 133.53 C86.26 112.62, 99.38 95.7, 133.75 60.69 M70.55 132.44 C94.78 105.09, 117.31 80.13, 130.97 61.71 M74.91 131.32 C92.15 116.36, 105.58 98.87, 131.4 69.26 M75.67 131.96 C97.82 107.14, 119.14 81.96, 132.06 67.12 M80.79 130.57 C100.44 110.58, 116.67 92.21, 131.31 75.57 M79.97 132.88 C93.22 118, 105.17 104.8, 132.65 73.09 M86.42 131.97 C101.91 114.64, 112.57 101.55, 130.4 79.48 M86.44 132.93 C101 114.53, 116.6 97.95, 130.8 79.37 M93.18 132.16 C101.07 120.13, 113.98 107.56, 131.3 88.06 M91.78 132.58 C107.52 115.65, 121.33 97.71, 131.11 87.47 M97.29 133.74 C108.26 120.37, 120.85 105.11, 130.01 91.2 M97.68 131.57 C105.61 123.09, 113.77 114.59, 132.47 91.79 M102.26 132.69 C109.94 124.47, 117.09 115.96, 129.69 99.2 M101.18 131.8 C110.37 121.47, 120.92 112.52, 130.68 97.75 M107.81 131.56 C114.27 124.59, 123.3 111.96, 130.88 102.75 M108.6 131.14 C114.27 123, 121.5 116.04, 132.74 103.31 M114.3 130.88 C121.15 125.13, 127.77 116.84, 129.96 110.34 M111.98 132.29 C117.74 125.19, 124.74 119.88, 132.24 110.88 M119.71 130.39 C123.62 128.39, 126.62 121.36, 133.45 116.23 M118.93 132.62 C122.29 126.46, 126.67 123.8, 131.61 116.85 M123.8 132.43 C124.34 130.93, 127.69 128.51, 131.77 122.27 M123.17 132.81 C125.29 129.93, 127.05 128.01, 132.51 122.06 M129.27 131.87 C129.77 130.93, 130.41 130.39, 131.44 128.91 M129.2 131.97 C129.78 131.19, 130.85 130.19, 131.54 129.07" stroke="#82c91e" stroke-width="0.5" fill="none"></path><path d="M0.69 1.73 C26.8 -0.93, 54.13 -0.25, 131.14 -0.01 M0.28 -0.21 C39 0.68, 80.43 1.28, 130.8 0.31 M131.78 -0.65 C130.61 39.43, 130.83 82.19, 131.69 131.31 M131.64 -0.17 C130.43 33.92, 130.24 69.12, 130.7 130.27 M132.7 131.6 C79.39 133.83, 29.5 132.78, -1.99 131.7 M130.01 130.73 C85.57 129.42, 39.37 129.37, -0.42 131.32 M1.19 132.23 C-2.4 85.9, -2.45 41.69, 1.18 0.67 M-0.26 129.94 C-0.93 92.67, -1.88 53.14, -0.98 0.01" stroke="#5c940d" stroke-width="1" fill="none"></path></g><g stroke-linecap="round"><g transform="translate(90.05269719067121 78.2692307692308) rotate(0 69.06163324514682 0.12834500340744626)"><path d="M0.95 0.25 C23.42 0.28, 113.15 -0.55, 135.92 -0.4 M-0.02 -0.67 C22.72 -0.42, 115.27 0.92, 138.14 0.92" stroke="#364fc7" stroke-width="1" fill="none"></path></g><g transform="translate(90.05269719067121 78.2692307692308) rotate(0 69.06163324514682 0.12834500340744626)"><path d="M110.28 9.37 C120.34 7.97, 133.95 1.56, 138.82 2.88 M109.14 11.87 C115.23 8.56, 122.38 7.42, 138.57 0.84" stroke="#364fc7" stroke-width="1" fill="none"></path></g><g transform="translate(90.05269719067121 78.2692307692308) rotate(0 69.06163324514682 0.12834500340744626)"><path d="M110.45 -11.15 C120.34 -4.49, 133.89 -2.86, 138.82 2.88 M109.31 -8.65 C115.38 -7.71, 122.49 -4.6, 138.57 0.84" stroke="#364fc7" stroke-width="1" fill="none"></path></g></g><g stroke-linecap="round"><g transform="translate(298.51423565220955 82.11538461538456) rotate(0 68.00873165160698 -0.935887124419196)"><path d="M-0.49 -0.4 C22.45 -0.71, 113.44 -1.09, 136.51 -1.13 M1.45 -1.66 C24.3 -1.93, 112.67 -0.52, 135.37 -0.18" stroke="#364fc7" stroke-width="1" fill="none"></path></g><g transform="translate(298.51423565220955 82.11538461538456) rotate(0 68.00873165160698 -0.935887124419196)"><path d="M106.36 9.06 C110.94 9.49, 117.62 5.21, 136.03 1.04 M106.51 10.55 C118.08 6.99, 127.67 2.64, 136.21 -0.86" stroke="#364fc7" stroke-width="1" fill="none"></path></g><g transform="translate(298.51423565220955 82.11538461538456) rotate(0 68.00873165160698 -0.935887124419196)"><path d="M106.67 -11.46 C111.31 -6.8, 117.93 -6.86, 136.03 1.04 M106.82 -9.97 C118.45 -5.83, 127.92 -2.46, 136.21 -0.86" stroke="#364fc7" stroke-width="1" fill="none"></path></g></g><g stroke-linecap="round"><g transform="translate(108.61728134155294 309.8846153846149) rotate(180 174.7293546412318 -0.7494247329420887)"><path d="M0.87 -0.51 C59.04 -0.63, 291.61 -0.71, 349.59 -0.79 M-0.13 -1.83 C57.8 -1.79, 289.98 0.06, 348.51 0.33" stroke="#364fc7" stroke-width="1" fill="none"></path></g><g transform="translate(108.61728134155294 309.8846153846149) rotate(180 174.7293546412318 -0.7494247329420887)"><path d="M319.4 9.99 C328.79 4.89, 338.28 2.07, 349.51 -1.65 M321.09 9.57 C331.56 6.56, 341.77 2.19, 348.93 0.91" stroke="#364fc7" stroke-width="1" fill="none"></path></g><g transform="translate(108.61728134155294 309.8846153846149) rotate(180 174.7293546412318 -0.7494247329420887)"><path d="M319.54 -10.53 C328.85 -8.48, 338.3 -4.16, 349.51 -1.65 M321.22 -10.95 C331.74 -6.28, 341.89 -2.97, 348.93 0.91" stroke="#364fc7" stroke-width="1" fill="none"></path></g></g><g stroke-linecap="round"><g transform="translate(106.20654334451729 271.423076923077) rotate(180 68.38337509793513 -0.15390641989188225)"><path d="M1.04 -0.06 C23.83 0.04, 114.05 -0.46, 136.65 -0.46 M0.12 -1.14 C22.75 -0.78, 112.99 0.44, 135.58 0.83" stroke="#364fc7" stroke-width="1" fill="none"></path></g><g transform="translate(106.20654334451729 271.423076923077) rotate(180 68.38337509793513 -0.15390641989188225)"><path d="M107.14 10.29 C114.74 7.1, 123.58 4.07, 136.93 1.75 M106.68 11.18 C115.25 8.04, 123.72 4.25, 135.46 0.84" stroke="#364fc7" stroke-width="1" fill="none"></path></g><g transform="translate(106.20654334451729 271.423076923077) rotate(180 68.38337509793513 -0.15390641989188225)"><path d="M107.45 -10.23 C114.78 -7.49, 123.53 -4.59, 136.93 1.75 M106.99 -9.34 C115.48 -6.39, 123.86 -4.1, 135.46 0.84" stroke="#364fc7" stroke-width="1" fill="none"></path></g></g><g transform="translate(89.23076923076928 53.84615384615384) rotate(0 14.5 10.5)"><text x="0" y="15" font-family="Virgil, Segoe UI Emoji" font-size="16px" fill="#364fc7" text-anchor="start" style="white-space: pre;" direction="ltr">add</text></g><g transform="translate(297.69230769230785 56.153846153846104) rotate(0 25 10.5)"><text x="0" y="15" font-family="Virgil, Segoe UI Emoji" font-size="16px" fill="#364fc7" text-anchor="start" style="white-space: pre;" direction="ltr">commit</text></g><g transform="translate(176.15384615384608 273.15384615384596) rotate(0 34 10.500000000000028)"><text x="0" y="15" font-family="Virgil, Segoe UI Emoji" font-size="16px" fill="#364fc7" text-anchor="start" style="white-space: pre;" direction="ltr">checkout</text></g><g transform="translate(293.0769230769231 314.6923076923075) rotate(0 80.5 10.5)"><text x="0" y="15" font-family="Virgil, Segoe UI Emoji" font-size="16px" fill="#364fc7" text-anchor="start" style="white-space: pre;" direction="ltr">checkout &lt;identifier&gt;</text></g><g stroke-linecap="round"><g transform="translate(90.15574288001449 33.65384615384582) rotate(0 175.02303156328298 0.07644018737599367)"><path d="M-0.46 -0.04 C57.77 -0.17, 291.93 -0.1, 350.51 -0.18 M1.49 -1.11 C59.53 -1.1, 291.68 1, 349.91 1.26" stroke="#364fc7" stroke-width="1" fill="none"></path></g><g transform="translate(90.15574288001449 33.65384615384582) rotate(0 175.02303156328298 0.07644018737599367)"><path d="M321.58 12.44 C332.42 9.47, 342.93 2.06, 349.35 0.92 M321.08 12.06 C328.88 7.74, 337.58 4.78, 349.32 1.66" stroke="#364fc7" stroke-width="1" fill="none"></path></g><g transform="translate(90.15574288001449 33.65384615384582) rotate(0 175.02303156328298 0.07644018737599367)"><path d="M321.72 -8.08 C332.61 -2.98, 343.06 -2.31, 349.35 0.92 M321.22 -8.46 C328.84 -7.05, 337.5 -4.29, 349.32 1.66" stroke="#364fc7" stroke-width="1" fill="none"></path></g></g><g transform="translate(91.53846153846155 10) rotate(0 37.5 10.500000000000014)"><text x="0" y="15" font-family="Virgil, Segoe UI Emoji" font-size="16px" fill="#364fc7" text-anchor="start" style="white-space: pre;" direction="ltr">commit -a</text></g><g transform="translate(40.000000000000114 147.46153846153842) rotate(0 34 26)"><text x="34" y="18" font-family="Virgil, Segoe UI Emoji" font-size="20px" fill="#c92a2a" text-anchor="middle" style="white-space: pre;" direction="ltr">Working</text><text x="34" y="44" font-family="Virgil, Segoe UI Emoji" font-size="20px" fill="#c92a2a" text-anchor="middle" style="white-space: pre;" direction="ltr">Area</text></g><g transform="translate(236.65384615384608 146.8846153846154) rotate(0 35.5 26)"><text x="35.5" y="18" font-family="Virgil, Segoe UI Emoji" font-size="20px" fill="#e67700" text-anchor="middle" style="white-space: pre;" direction="ltr">Staging</text><text x="35.5" y="44" font-family="Virgil, Segoe UI Emoji" font-size="20px" fill="#e67700" text-anchor="middle" style="white-space: pre;" direction="ltr">Area</text></g><g transform="translate(417.96153846153857 159.50000000000003) rotate(0 50.5 13)"><text x="50.5" y="18" font-family="Virgil, Segoe UI Emoji" font-size="20px" fill="#5c940d" text-anchor="middle" style="white-space: pre;" direction="ltr">Repository</text></g></svg>
